<svg width="19" height="20" viewBox="0 0 19 20" fill="none" xmlns="http://www.w3.org/2000/svg">
<g clip-path="url(#clip0_888_982)">
<path d="M2.40234 4.47793C2.40234 4.04139 2.75623 3.6875 3.19278 3.6875H15.8397C16.2762 3.6875 16.6301 4.04139 16.6301 4.47793C16.6301 4.91448 16.2762 5.26837 15.8397 5.26837H3.19278C2.75623 5.26837 2.40234 4.91448 2.40234 4.47793ZM2.40234 15.544C2.40234 15.1074 2.75623 14.7536 3.19278 14.7536H15.8397C16.2762 14.7536 16.6301 15.1074 16.6301 15.544C16.6301 15.9805 16.2762 16.3344 15.8397 16.3344H3.19278C2.75623 16.3344 2.40234 15.9805 2.40234 15.544Z" fill="white"/>
<path d="M15.8393 9.21875H7.93496C7.49842 9.21875 7.14453 9.57264 7.14453 10.0092C7.14453 10.4457 7.49842 10.7996 7.93496 10.7996H15.8393C16.2758 10.7996 16.6297 10.4457 16.6297 10.0092C16.6297 9.57264 16.2758 9.21875 15.8393 9.21875Z" fill="white"/>
</g>
<defs>
<clipPath id="clip0_888_982">
<rect width="18.9704" height="18.9704" fill="white" transform="translate(0.03125 0.515625)"/>
</clipPath>
</defs>
</svg>
